<?xml version="1.0" standalone="no"?>
<!DOCTYPE svg PUBLIC "-//W3C//DTD SVG 20010904//EN"
 "http://www.w3.org/TR/2001/REC-SVG-20010904/DTD/svg10.dtd">
<svg version="1.0" xmlns="http://www.w3.org/2000/svg"
 width="2207.000000pt" height="886.000000pt" viewBox="0 0 2207.000000 886.000000"
 preserveAspectRatio="xMidYMid meet">

<g transform="translate(0.000000,886.000000) scale(0.100000,-0.100000)"
fill="#000000" stroke="none">
<path d="M8708 6499 c-331 -35 -596 -286 -654 -620 -24 -142 -15 -504 15 -609
39 -132 95 -225 196 -325 102 -102 167 -144 292 -189 l88 -31 1250 -5 c1248
-5 1250 -5 1296 -26 58 -27 116 -85 143 -143 19 -42 21 -63 21 -261 0 -214 0
-215 -27 -266 -15 -29 -46 -68 -69 -87 -83 -72 31 -67 -1621 -67 l-1488 0 0
-235 0 -235 1500 0 c1696 0 1580 -5 1755 80 197 95 334 263 396 485 11 38 14
121 14 335 0 284 0 285 -27 365 -41 120 -92 199 -193 300 -102 103 -198 160
-332 198 -78 22 -78 22 -1318 27 l-1240 5 -47 27 c-25 16 -63 47 -82 70 -56
65 -66 114 -66 324 0 158 3 191 20 236 28 74 70 122 142 157 l61 31 1494 0
1493 0 0 235 0 235 -1467 -1 c-808 -1 -1502 -5 -1545 -10z"/>
<path d="M12130 4955 l0 -1555 235 0 235 0 -2 1553 -3 1552 -232 3 -233 2 0
-1555z"/>
<path d="M13574 6500 c-308 -33 -561 -251 -647 -559 -21 -74 -21 -94 -25 -916
-3 -894 0 -976 43 -1112 64 -201 232 -379 435 -461 131 -53 102 -52 1413 -52
1325 0 1290 -1 1431 56 157 64 304 202 379 356 84 171 82 156 82 803 l0 570
-1165 0 -1165 0 -3 -232 -2 -233 935 0 936 0 -3 -327 c-3 -314 -4 -330 -25
-368 -25 -47 -84 -105 -133 -131 -34 -18 -85 -19 -1260 -19 l-1225 0 -48 25
c-57 29 -102 76 -131 139 -21 46 -21 53 -21 916 0 815 1 872 18 908 24 52 92
124 142 150 l40 22 1508 3 1507 2 -2 233 -3 232 -1470 1 c-808 1 -1502 -2
-1541 -6z"/>
<path d="M17664 6500 c-345 -37 -614 -299 -664 -645 -6 -43 -10 -524 -10
-1262 l0 -1193 235 0 235 0 0 660 0 660 1425 0 1425 0 0 -660 0 -660 230 0
230 0 0 1228 c0 1201 0 1231 -20 1308 -69 269 -267 470 -537 547 l-78 21
-1200 2 c-660 1 -1232 -2 -1271 -6z m2484 -491 c65 -32 99 -66 135 -133 21
-39 22 -53 25 -363 l3 -323 -1425 0 -1426 0 0 298 c0 329 5 364 60 439 33 45
80 78 139 99 29 10 280 13 1232 14 l1196 0 61 -31z"/>
<path d="M4273 5193 c427 -2 1127 -2 1555 0 427 1 77 2 -778 2 -855 0 -1205
-1 -777 -2z"/>
<path d="M6633 5193 c9 -2 25 -2 35 0 9 3 1 5 -18 5 -19 0 -27 -2 -17 -5z"/>
<path d="M6698 4458 c1 -409 3 -930 5 -1158 1 -228 3 106 5 743 1 636 -1 1157
-5 1157 -5 0 -7 -334 -5 -742z"/>
<path d="M3501 3664 c0 -11 3 -14 6 -6 3 7 2 16 -1 19 -3 4 -6 -2 -5 -13z"/>
<path d="M3501 3623 c-1 -19 4 -23 27 -22 22 1 23 2 5 6 -12 2 -24 12 -26 21
-3 12 -5 10 -6 -5z"/>
<path d="M4603 3613 c15 -2 39 -2 55 0 15 2 2 4 -28 4 -30 0 -43 -2 -27 -4z"/>
<path d="M3663 3603 c48 -2 126 -2 175 0 48 1 8 3 -88 3 -96 0 -136 -2 -87 -3z"/>
<path d="M3973 3603 c20 -2 54 -2 75 0 20 2 3 4 -38 4 -41 0 -58 -2 -37 -4z"/>
<path d="M4133 3603 c20 -2 54 -2 75 0 20 2 3 4 -38 4 -41 0 -58 -2 -37 -4z"/>
<path d="M4273 3603 c9 -2 25 -2 35 0 9 3 1 5 -18 5 -19 0 -27 -2 -17 -5z"/>
<path d="M4358 3603 c7 -3 16 -2 19 1 4 3 -2 6 -13 5 -11 0 -14 -3 -6 -6z"/>
<path d="M4981 3284 c0 -11 3 -14 6 -6 3 7 2 16 -1 19 -3 4 -6 -2 -5 -13z"/>
<path d="M4485 3120 c3 -5 8 -10 11 -10 2 0 4 5 4 10 0 6 -5 10 -11 10 -5 0
-7 -4 -4 -10z"/>
<path d="M4991 3114 c0 -11 3 -14 6 -6 3 7 2 16 -1 19 -3 4 -6 -2 -5 -13z"/>
<path d="M4994 3005 c0 -49 1 -71 3 -48 2 23 2 64 0 90 -2 26 -3 8 -3 -42z"/>
<path d="M4994 2665 c0 -66 1 -92 3 -57 2 34 2 88 0 120 -2 31 -3 3 -3 -63z"/>
<path d="M8225 2628 c-16 -6 -43 -22 -58 -37 -49 -44 -61 -78 -62 -166 0 -70
4 -86 27 -127 19 -32 41 -52 71 -67 41 -20 59 -21 348 -21 347 0 343 1 354
-74 9 -59 -9 -114 -42 -127 -13 -5 -182 -9 -379 -9 l-354 0 0 -55 0 -55 363 0
c207 0 377 4 396 10 19 5 48 22 64 37 49 47 61 80 62 168 0 70 -4 86 -27 127
-19 32 -41 52 -71 67 -41 20 -59 21 -350 21 -362 0 -347 -5 -347 105 0 53 4
68 22 85 21 19 33 20 385 20 l363 0 0 55 0 55 -367 -1 c-228 0 -379 -5 -398
-11z"/>
<path d="M10051 2613 c13 -15 113 -121 222 -235 l197 -209 0 -139 0 -140 55 0
55 0 0 138 0 137 226 238 225 237 -78 0 -78 0 -174 -185 -173 -184 -112 117
c-61 64 -140 147 -175 184 l-64 68 -75 0 -75 0 24 -27z"/>
<path d="M12100 2624 c-42 -18 -77 -49 -96 -86 -19 -36 -19 -190 0 -226 19
-36 65 -78 99 -91 18 -7 142 -11 332 -11 363 0 350 4 350 -105 0 -110 21 -105
-411 -105 l-364 0 0 -55 0 -56 383 3 383 3 37 25 c60 41 82 91 82 185 0 98
-21 145 -78 183 l-40 27 -325 5 c-374 6 -352 -1 -352 106 0 56 3 65 26 83 26
20 38 21 385 21 l359 0 0 55 0 55 -367 0 c-306 -1 -374 -3 -403 -16z"/>
<path d="M13930 2585 l0 -55 198 -2 197 -3 3 -317 2 -318 55 0 55 0 0 320 0
320 200 0 200 0 0 55 0 55 -455 0 -455 0 0 -55z"/>
<path d="M15975 2621 c-46 -20 -91 -69 -103 -109 -4 -15 -7 -130 -7 -257 0
-251 2 -261 62 -316 50 -47 72 -49 459 -49 l364 0 0 55 0 55 -356 0 c-352 0
-386 3 -406 34 -4 6 -8 48 -8 94 l0 82 385 0 385 0 0 55 0 55 -385 0 -385 0 0
85 c0 134 -29 125 407 125 l363 0 0 55 0 55 -367 0 c-335 0 -372 -2 -408 -19z"/>
<path d="M17824 2628 c-41 -20 -44 -44 -44 -398 l0 -340 55 0 55 0 0 320 c0
182 4 320 9 320 5 0 91 -88 191 -195 110 -118 191 -197 207 -201 13 -4 34 -1
46 6 12 7 100 97 196 201 96 104 178 189 183 189 4 0 8 -144 8 -320 l0 -320
55 0 55 0 0 350 0 351 -25 24 c-20 20 -34 25 -78 25 -71 0 -84 -10 -268 -207
-83 -90 -154 -163 -158 -163 -5 0 -79 77 -167 171 -87 94 -171 177 -186 185
-31 16 -103 17 -134 2z"/>
<path d="M19972 2619 c-66 -33 -96 -85 -100 -175 -6 -114 25 -180 102 -215 37
-17 71 -19 347 -19 l306 0 21 -23 c18 -19 22 -35 22 -84 0 -55 -3 -64 -26 -82
-26 -20 -38 -21 -385 -21 l-359 0 0 -55 0 -55 365 0 c306 0 372 2 402 15 87
36 116 94 111 215 -3 77 -6 91 -31 123 -57 75 -68 77 -412 77 l-306 0 -24 25
c-21 20 -25 34 -25 80 0 46 4 60 25 80 l24 25 366 0 365 0 0 55 0 55 -372 0
c-361 0 -374 -1 -416 -21z"/>
<path d="M4991 2524 c0 -11 3 -14 6 -6 3 7 2 16 -1 19 -3 4 -6 -2 -5 -13z"/>
<path d="M1293 2335 c0 -22 2 -30 4 -17 2 12 2 30 0 40 -3 9 -5 -1 -4 -23z"/>
<path d="M4981 2244 c0 -11 3 -14 6 -6 3 7 2 16 -1 19 -3 4 -6 -2 -5 -13z"/>
<path d="M4982 2150 c0 -14 2 -19 5 -12 2 6 2 18 0 25 -3 6 -5 1 -5 -13z"/>
<path d="M1293 2085 c0 -33 2 -45 4 -27 2 18 2 45 0 60 -2 15 -4 0 -4 -33z"/>
<path d="M6359 2053 l-24 -28 28 24 c15 14 27 26 27 28 0 8 -8 1 -31 -24z"/>
<path d="M1292 1868 c-1 -87 1 -158 6 -158 4 0 6 48 4 107 -4 193 -8 211 -10
51z"/>
<path d="M6269 1973 c-13 -16 -12 -17 4 -4 16 13 21 21 13 21 -2 0 -10 -8 -17
-17z"/>
<path d="M4973 1775 c0 -27 2 -38 4 -22 2 15 2 37 0 50 -2 12 -4 0 -4 -28z"/>
<path d="M5588 1713 c7 -3 16 -2 19 1 4 3 -2 6 -13 5 -11 0 -14 -3 -6 -6z"/>
<path d="M5628 1713 c7 -3 16 -2 19 1 4 3 -2 6 -13 5 -11 0 -14 -3 -6 -6z"/>
<path d="M5188 1703 c7 -3 16 -2 19 1 4 3 -2 6 -13 5 -11 0 -14 -3 -6 -6z"/>
<path d="M5253 1703 c9 -2 25 -2 35 0 9 3 1 5 -18 5 -19 0 -27 -2 -17 -5z"/>
</g>
</svg>
